<?xml version="1.0" encoding="UTF-8"?><svg id="uuid-4c81c711-c0c9-4781-9e42-5a471af4daf3" xmlns="http://www.w3.org/2000/svg" viewBox="0 0 68.38 27.33"><defs><style>.uuid-1c3e0d30-48dd-4f46-b6ef-99d4574d44b8{fill-rule:evenodd;}.uuid-1c3e0d30-48dd-4f46-b6ef-99d4574d44b8,.uuid-9e3346a1-cf7b-4a61-805e-1d7ecc9433e1,.uuid-f0f1f084-4e29-41fd-b4a2-dbae0654ef29{stroke-width:0px;}.uuid-1c3e0d30-48dd-4f46-b6ef-99d4574d44b8,.uuid-f0f1f084-4e29-41fd-b4a2-dbae0654ef29{fill:#fff;}.uuid-9e3346a1-cf7b-4a61-805e-1d7ecc9433e1{fill:#f1881d;}</style></defs><g id="uuid-ac435fbe-0b2e-4a52-9f55-48f392b47f09"><rect class="uuid-9e3346a1-cf7b-4a61-805e-1d7ecc9433e1" width="68.38" height="27.33"/><path class="uuid-f0f1f084-4e29-41fd-b4a2-dbae0654ef29" d="M24.91,10.1c.92.95,1.39,2.3,1.39,4.07s-.46,3.13-1.39,4.09c-.92.96-2.25,1.43-3.99,1.43s-3.04-.48-3.97-1.43c-.93-.95-1.4-2.32-1.4-4.09s.46-3.13,1.39-4.07c.92-.95,2.25-1.42,3.98-1.42s3.07.47,3.99,1.42ZM18.59,14.17c0,2.16.78,3.24,2.33,3.24s2.34-1.08,2.34-3.24-.78-3.24-2.34-3.23c-1.55,0-2.33,1.07-2.33,3.23Z"/><path class="uuid-f0f1f084-4e29-41fd-b4a2-dbae0654ef29" d="M34.28,8.79c1.46,0,2.6.45,3.41,1.36.81.9,1.22,2.19,1.22,3.85,0,1.17-.23,2.17-.7,3.02-.47.85-1.12,1.49-1.98,1.94-.85.45-1.86.67-3.03.67-.55,0-1.14-.07-1.77-.22v5.93c0,.13-.11.24-.24.24h-2.55c-.13,0-.24-.11-.24-.24v-15.33c0-.68.55-1.24,1.24-1.24h.91l3.71.02ZM31.44,12.57v4.6c0,.11.08.21.18.23.3.07.53.11.69.13.2.03.44.04.72.04.91,0,1.61-.29,2.1-.88.49-.59.73-1.45.73-2.59,0-2.12-.74-3.18-2.21-3.17h-1.98c-.13,0-.24.11-.24.24v1.42Z"/><path class="uuid-f0f1f084-4e29-41fd-b4a2-dbae0654ef29" d="M41.28,2.68h2.55c.13,0,.24.11.24.24v16.32c0,.13-.11.24-.24.24h-2.55c-.13,0-.24-.11-.24-.24V2.91c0-.13.11-.24.24-.24Z"/><rect class="uuid-f0f1f084-4e29-41fd-b4a2-dbae0654ef29" x="47.02" y="9.04" width="3.02" height="10.43" rx=".24" ry=".24"/><path class="uuid-f0f1f084-4e29-41fd-b4a2-dbae0654ef29" d="M62.33,19.47h-2.53c-.07,0-.14-.04-.19-.09l-7.49-10.07c-.12-.16,0-.38.19-.38h2.53c.07,0,.14.04.19.09l7.49,10.07c.12.16,0,.38-.19.38Z"/><path class="uuid-f0f1f084-4e29-41fd-b4a2-dbae0654ef29" d="M52.31,19.47h2.53c.07,0,.14-.04.19-.09l7.77-10.45h-3.12s-7.56,10.17-7.56,10.17c-.12.16,0,.38.19.38Z"/><circle class="uuid-f0f1f084-4e29-41fd-b4a2-dbae0654ef29" cx="48.53" cy="5.84" r="1.51"/><path class="uuid-f0f1f084-4e29-41fd-b4a2-dbae0654ef29" d="M9.14,10.88c.54,0,.93.14,1.17.41.24.28.36.72.36,1.34v6.6c0,.13.11.24.24.24h2.55c.13,0,.24-.11.24-.24v-6.77c0-1.19-.3-2.11-.89-2.75-.6-.64-1.44-.96-2.55-.96h-3.47s-.01-5.88-.01-5.88c0-.13-.11-.24-.24-.24h-2.56c-.13,0-.24.11-.24.24v16.36c0,.13.11.24.24.24h2.56c.13,0,.24-.11.24-.24v-8.12c0-.13.11-.24.24-.24h2.13Z"/><path class="uuid-1c3e0d30-48dd-4f46-b6ef-99d4574d44b8" d="M59.02,12.35c-.09,0-.18-.03-.25-.08-.09-.07-.15-.17-.17-.28-.02-.11.01-.22.08-.32l.24-.33c.08-.11.21-.17.34-.17,0,0,.02,0,.02,0,0-.03-.02-.06-.02-.08-.02-.11.01-.23.08-.32l1.16-1.55s.02-.08-.01-.1c0,0-.1.02-.1.02l-.83,1.11c-.08.11-.21.17-.34.17,0,0-.02,0-.03,0,.05.13.04.29-.05.41l-.24.33c-.08.11-.21.17-.34.17-.09,0-.18-.03-.25-.08-.09-.07-.15-.17-.17-.28-.02-.11.01-.23.08-.32l.24-.33c.08-.11.21-.17.34-.17.01,0,.02,0,.03,0-.05-.13-.04-.29.05-.41l.83-1.11c0-.08,0-.19,0-.32l-.71.23s-.11.02-.12.02c-.15,0-.3-.08-.39-.21-.08-.12-.1-.25-.05-.37l.66-1.72c.28-.74.63-.78,1.2-.84.14-.02.3-.03.49-.07,1.44-2.56,3.64-2.84,4.52-2.84.09,0,.17,0,.23,0,.26.01.51.19.6.44.32.87.84,3.13-1.3,5.38.03.19.06.35.08.49.11.57.17.91-.45,1.4l-1.44,1.13c-.08.06-.16.09-.25.09-.12,0-.25-.05-.34-.15-.09-.09-.13-.2-.13-.31v-.75c-.11.03-.22.08-.32.13l-.56.74c-.08.11-.21.17-.34.17-.01,0-.02,0-.04,0,.01.03.02.07.03.1.02.11-.01.22-.08.32l-.24.33c-.08.11-.21.17-.34.17-.09,0-.18-.03-.25-.08-.09-.07-.15-.17-.17-.28-.02-.11.01-.23.08-.32l.24-.33c.08-.11.21-.17.34-.17.01,0,.03,0,.04,0-.06-.13-.04-.29.05-.42l.58-.78s.02-.08-.01-.1c0,0-.1.02-.1.02l-1.16,1.56c-.08.11-.21.17-.34.17,0,0-.02,0-.03,0,.01.03.02.06.02.09.02.11-.01.22-.08.32l-.24.33c-.08.11-.21.17-.34.17h0ZM64.15,4.25c-.23,0-.44.11-.58.29-.23.32-.17.77.15,1,.12.09.27.14.42.14.23,0,.44-.11.58-.29.23-.32.17-.77-.15-1-.12-.09-.27-.14-.42-.14Z"/><path class="uuid-9e3346a1-cf7b-4a61-805e-1d7ecc9433e1" d="M65.29,2.65c.08,0,.16,0,.22,0,.19.01.37.15.44.32.29.79.84,3.04-1.32,5.26.12,1,.41,1.26-.29,1.81-.48.38-.97.76-1.45,1.14-.04.03-.08.04-.13.04-.14,0-.3-.12-.3-.28v-.97c-.23.04-.43.11-.61.21h0s-.58.78-.58.78c-.05.07-.12.1-.2.1-.05,0-.1-.02-.15-.05-.11-.08-.13-.24-.05-.35l.58-.78h0s0,0,0,0c.08-.11.06-.27-.05-.35-.04-.03-.1-.05-.15-.05-.08,0-.15.04-.2.1h0s-1.15,1.56-1.15,1.56c-.05.07-.12.1-.2.1-.05,0-.1-.02-.15-.05-.11-.08-.13-.24-.05-.35l1.15-1.55h0c.08-.11.06-.27-.05-.35-.04-.03-.1-.05-.15-.05-.08,0-.15.04-.2.1h0s-.82,1.11-.82,1.11c-.05.07-.12.1-.2.1-.05,0-.1-.02-.15-.05-.11-.08-.13-.24-.05-.35l.83-1.11h0c.04-.2.05-.42.02-.66l-.92.29s-.05.01-.07.01c-.18,0-.34-.19-.28-.35.22-.57.44-1.15.66-1.72.32-.83.65-.63,1.64-.81,1.37-2.5,3.44-2.83,4.41-2.83M64.15,5.86c.27,0,.54-.13.72-.36.29-.4.21-.95-.19-1.25-.16-.12-.34-.17-.53-.17-.27,0-.54.13-.72.36-.29.4-.21.95.19,1.25.16.12.34.17.53.17M58.78,10.3c.05,0,.1.02.15.05.11.08.13.24.05.35l-.24.33c-.05.07-.12.1-.2.1-.05,0-.1-.02-.15-.05-.11-.08-.13-.24-.05-.35l.24-.33c.05-.07.12-.1.2-.1M60.63,11.17c.05,0,.1.02.15.05.11.08.13.24.05.35l-.24.33c-.05.07-.12.1-.2.1-.05,0-.1-.02-.15-.05-.11-.08-.13-.24-.05-.35l.24-.33c.05-.07.12-.1.2-.1M59.26,11.34c.05,0,.1.02.15.05.11.08.13.24.05.35l-.24.33c-.05.07-.12.1-.2.1-.05,0-.1-.02-.15-.05-.11-.08-.13-.24-.05-.35l.24-.33c.05-.07.12-.1.2-.1M65.29,2.3h0c-.91,0-3.15.28-4.64,2.86-.15.02-.28.04-.4.05-.57.06-1.03.11-1.35.96l-.66,1.72c-.07.18-.04.37.07.54.12.18.33.29.54.29.06,0,.12,0,.18-.03l.47-.15s0,.02,0,.03l-.77,1.04c-.08.11-.12.23-.12.37-.12.04-.23.11-.31.22l-.24.33c-.2.27-.14.65.13.84.1.08.23.12.36.12.02,0,.03,0,.05,0l-.06.08c-.2.27-.14.65.13.84.1.08.23.12.36.12.19,0,.37-.09.49-.25l.24-.33s.03-.05.05-.08c.03.15.11.28.23.37.1.08.23.12.36.12.19,0,.37-.09.49-.25l.24-.33c.08-.11.12-.24.12-.37.12-.04.24-.11.31-.22l.53-.71s.02-.01.03-.02v.49c0,.16.06.32.18.44.13.13.3.2.47.2.13,0,.25-.04.35-.12l1.45-1.14c.71-.56.62-1,.51-1.57-.02-.12-.05-.25-.07-.4,2.14-2.3,1.61-4.61,1.28-5.5-.11-.31-.42-.54-.75-.55-.07,0-.15,0-.24,0h0ZM64.15,5.51c-.12,0-.23-.04-.32-.11-.12-.09-.19-.21-.21-.35-.02-.14.01-.28.1-.4.1-.14.26-.22.43-.22.12,0,.23.04.32.11.12.09.19.21.21.35.02.14-.01.28-.1.4-.1.14-.26.22-.43.22h0Z"/></g></svg>